<?xml version="1.0" encoding="utf-8"?>
<svg viewBox="173.526 184.0896 154.198 69" width="154.198" height="69" xmlns="http://www.w3.org/2000/svg">
  <g transform="matrix(1, 0, 0, 1, 251.45599739933016, 218.5895723490354)">
    <g style="">
      <g transform="matrix(1 0 0 1 39.71 0)">
        <linearGradient id="SVGID_183" gradientUnits="userSpaceOnUse" gradientTransform="matrix(1 0 0 1 0 0)" x1="81.0842" y1="3" x2="141.295" y2="77.547">
          <stop offset="0" style="stop-color:rgb(72,91,255);stop-opacity: 1"/>
          <stop offset="1" style="stop-color:rgb(255,89,248);stop-opacity: 1"/>
        </linearGradient>
        <path style="stroke: url(#SVGID_183); stroke-width: 4.3; stroke-dasharray: none; stroke-linecap: butt; stroke-dashoffset: 0; stroke-linejoin: miter; stroke-miterlimit: 4; fill: none; fill-rule: nonzero; opacity: 1;" transform=" translate(-117.64, -37.5)" d="M 81.0842 15.9024 V 8.73438 C 81.0842 5.56737 83.6516 3 86.8186 3 H 148.463 C 151.63 3 154.198 5.56737 154.198 8.73438 V 48.8751 C 154.198 52.0421 151.63 54.6094 148.463 54.6094 H 138.428 L 141.782 70.2603 C 142.075 71.6282 140.436 72.563 139.408 71.6141 L 124.092 57.4766 H 86.8186 C 83.6516 57.4766 81.0842 54.9093 81.0842 51.7422 V 48.8751" stroke-linecap="round"/>
      </g>
      <g transform="matrix(1 0 0 1 -75.69 -7.86)">
        <path style="stroke: none; stroke-width: 1; stroke-dasharray: none; stroke-linecap: butt; stroke-dashoffset: 0; stroke-linejoin: miter; stroke-miterlimit: 4; fill: rgb(41,41,46); fill-rule: nonzero; opacity: 1;" transform=" translate(-2.24, -29.64)" d="M 0 18.999 H 4.47282 V 40.2735 H 0 V 18.999 Z" stroke-linecap="round"/>
      </g>
      <g transform="matrix(1 0 0 1 -63.46 -4.94)">
        <path style="stroke: none; stroke-width: 1; stroke-dasharray: none; stroke-linecap: butt; stroke-dashoffset: 0; stroke-linejoin: miter; stroke-miterlimit: 4; fill: rgb(41,41,46); fill-rule: nonzero; opacity: 1;" transform=" translate(-14.46, -32.56)" d="M 22.5872 32.6181 C 22.5872 32.6755 22.5585 33.0769 22.5012 33.8223 H 10.8317 C 11.042 34.7781 11.5389 35.5331 12.3226 36.0874 C 13.1063 36.6417 14.0812 36.9189 15.2472 36.9189 C 16.05 36.9189 16.7572 36.8042 17.3689 36.5748 C 17.9997 36.3264 18.5827 35.9441 19.1179 35.428 L 21.4977 38.0084 C 20.0449 39.6714 17.9232 40.5029 15.1325 40.5029 C 13.3931 40.5029 11.8543 40.1684 10.5163 39.4994 C 9.1783 38.8113 8.14611 37.8651 7.41975 36.6609 C 6.6934 35.4566 6.33022 34.0899 6.33022 32.5608 C 6.33022 31.0507 6.68384 29.6936 7.39108 28.4894 C 8.11744 27.266 9.10184 26.3199 10.3443 25.6508 C 11.6059 24.9627 13.0108 24.6187 14.5591 24.6187 C 16.0691 24.6187 17.4358 24.9436 18.6591 25.5935 C 19.8825 26.2434 20.8382 27.18 21.5263 28.4033 C 22.2336 29.6076 22.5872 31.0125 22.5872 32.6181 Z M 14.5877 28.0019 C 13.5747 28.0019 12.7241 28.2887 12.0359 28.8621 C 11.3478 29.4355 10.9273 30.2192 10.7744 31.2132 H 18.3724 C 18.2195 30.2384 17.799 29.4642 17.1109 28.8908 C 16.4227 28.2982 15.5817 28.0019 14.5877 28.0019 Z" stroke-linecap="round"/>
      </g>
      <g transform="matrix(1 0 0 1 -49.45 -6.53)">
        <path style="stroke: none; stroke-width: 1; stroke-dasharray: none; stroke-linecap: butt; stroke-dashoffset: 0; stroke-linejoin: miter; stroke-miterlimit: 4; fill: rgb(41,41,46); fill-rule: nonzero; opacity: 1;" transform=" translate(-28.48, -30.97)" d="M 34.3673 39.5281 C 33.9277 39.853 33.3829 40.1015 32.733 40.2735 C 32.1022 40.4264 31.4332 40.5029 30.726 40.5029 C 28.891 40.5029 27.4669 40.0346 26.4539 39.098 C 25.4599 38.1614 24.9629 36.7851 24.9629 34.9692 V 28.6327 H 22.5832 V 25.1921 H 24.9629 V 21.4361 H 29.4357 V 25.1921 H 33.2778 V 28.6327 H 29.4357 V 34.9119 C 29.4357 35.5618 29.5982 36.0683 29.9232 36.4315 C 30.2672 36.7755 30.7451 36.9476 31.3568 36.9476 C 32.064 36.9476 32.6661 36.7564 33.1631 36.3741 L 34.3673 39.5281 Z" stroke-linecap="round"/>
      </g>
      <g transform="matrix(1 0 0 1 -29.16 -5.05)">
        <path style="stroke: none; stroke-width: 1; stroke-dasharray: none; stroke-linecap: butt; stroke-dashoffset: 0; stroke-linejoin: miter; stroke-miterlimit: 4; fill: rgb(41,41,46); fill-rule: nonzero; opacity: 1;" transform=" translate(-48.76, -32.45)" d="M 55.4862 24.6187 C 57.4168 24.6187 58.9459 25.1921 60.0737 26.339 C 61.2206 27.4667 61.794 29.1679 61.794 31.4426 V 40.2735 H 57.3212 V 32.1307 C 57.3212 30.9074 57.0631 29.9994 56.5471 29.4069 C 56.0501 28.7952 55.3333 28.4894 54.3967 28.4894 C 53.3454 28.4894 52.5139 28.8334 51.9022 29.5216 C 51.2905 30.1906 50.9847 31.1941 50.9847 32.5321 V 40.2735 H 46.5119 V 32.1307 C 46.5119 29.7031 45.537 28.4894 43.5873 28.4894 C 42.5552 28.4894 41.7332 28.8334 41.1216 29.5216 C 40.5099 30.1906 40.2041 31.1941 40.2041 32.5321 V 40.2735 H 35.7312 V 24.848 H 40.0034 V 26.6257 C 40.5768 25.9758 41.2745 25.4788 42.0964 25.1348 C 42.9375 24.7907 43.855 24.6187 44.8489 24.6187 C 45.9384 24.6187 46.9228 24.8385 47.8021 25.2781 C 48.6814 25.6986 49.3886 26.3199 49.9238 27.1418 C 50.5546 26.339 51.3479 25.7177 52.3036 25.2781 C 53.2785 24.8385 54.3393 24.6187 55.4862 24.6187 Z" stroke-linecap="round"/>
      </g>
      <g transform="matrix(1 0 0 1 -6.11 -4.94)">
        <path style="stroke: none; stroke-width: 1; stroke-dasharray: none; stroke-linecap: butt; stroke-dashoffset: 0; stroke-linejoin: miter; stroke-miterlimit: 4; fill: rgb(41,41,46); fill-rule: nonzero; opacity: 1;" transform=" translate(-71.81, -32.56)" d="M 79.9344 32.6181 C 79.9344 32.6755 79.9057 33.0769 79.8484 33.8223 H 68.1789 C 68.3891 34.7781 68.8861 35.5331 69.6698 36.0874 C 70.4535 36.6417 71.4284 36.9189 72.5944 36.9189 C 73.3972 36.9189 74.1044 36.8042 74.7161 36.5748 C 75.3469 36.3264 75.9299 35.9441 76.4651 35.428 L 78.8448 38.0084 C 77.3921 39.6714 75.2704 40.5029 72.4797 40.5029 C 70.7402 40.5029 69.2015 40.1684 67.8635 39.4994 C 66.5255 38.8113 65.4933 37.8651 64.7669 36.6609 C 64.0406 35.4566 63.6774 34.0899 63.6774 32.5608 C 63.6774 31.0507 64.031 29.6936 64.7383 28.4894 C 65.4646 27.266 66.449 26.3199 67.6915 25.6508 C 68.953 24.9627 70.3579 24.6187 71.9062 24.6187 C 73.4163 24.6187 74.783 24.9436 76.0063 25.5935 C 77.2297 26.2434 78.1854 27.18 78.8735 28.4033 C 79.5807 29.6076 79.9344 31.0125 79.9344 32.6181 Z M 71.9349 28.0019 C 70.9218 28.0019 70.0712 28.2887 69.3831 28.8621 C 68.695 29.4355 68.2745 30.2192 68.1215 31.2132 H 75.7196 C 75.5667 30.2384 75.1462 29.4642 74.458 28.8908 C 73.7699 28.2982 72.9289 28.0019 71.9349 28.0019 Z" stroke-linecap="round"/>
      </g>
      <g transform="matrix(1 0 0 1 37.42 -6.42)" style="">
        <text font-family="'Open Sans', sans-serif" font-size="29" font-style="italic" font-weight="bold" style="stroke: none; stroke-width: 1; stroke-dasharray: none; stroke-linecap: butt; stroke-dashoffset: 0; stroke-linejoin: miter; stroke-miterlimit: 4; fill: rgb(101,72,255); fill-opacity: 0.77; fill-rule: nonzero; opacity: 1; white-space: pre;"><tspan x="-31.62" y="9.11">c</tspan><tspan x="-18.7" y="9.11">h</tspan><tspan x="-1.65" y="9.11">a</tspan><tspan x="13.87" y="9.11">t</tspan></text>
      </g>
    </g>
  </g>
</svg>